<!DOCTYPE svg PUBLIC "-//W3C//DTD SVG 1.1//EN" "http://www.w3.org/Graphics/SVG/1.1/DTD/svg11.dtd">

<!-- Uploaded to: SVG Repo, www.svgrepo.com, Transformed by: SVG Repo Mixer Tools -->
<svg fill="#000000" width="20px" height="20px" viewBox="0 0 24 24" id="facebook" data-name="Flat Color" xmlns="http://www.w3.org/2000/svg" class="icon flat-color">

<g id="SVGRepo_bgCarrier" stroke-width="0"/>

<g id="SVGRepo_tracerCarrier" stroke-linecap="round" stroke-linejoin="round"/>

<g id="SVGRepo_iconCarrier">

<path id="primary" d="M14,6h3a1,1,0,0,0,1-1V3a1,1,0,0,0-1-1H14A5,5,0,0,0,9,7v3H7a1,1,0,0,0-1,1v2a1,1,0,0,0,1,1H9v7a1,1,0,0,0,1,1h2a1,1,0,0,0,1-1V14h2.22a1,1,0,0,0,1-.76l.5-2a1,1,0,0,0-1-1.24H13V7A1,1,0,0,1,14,6Z" style="fill: #4a4a4a;"/>

</g>

</svg>